# xmcd
#
# Track frame offsets:
# 150
# 28820
# 45732
# 63160
# 82907
# 111290
# 136490
# 161927
# 181530
# 199067
# 222542
# 238935
# 268877
# 300230
#
# Disc length: 4404 seconds
#
#
# Revision: 4
# Processed by: cddbd v1.5.2PL0 Copyright (c) Steve Scherf et al.
# Submitted via: FreeRIP 2.951 
#
DISCID=c711320e,c811320e
DTITLE=Vargas Blues Band - En Directo  Madrid-Chicago
DYEAR=2000
DGENRE=Blues
TTITLE0=Back Alley Blues
TTITLE1=Born to be  Wild
TTITLE2=Texas-Tango
TTITLE3=Illegally
TTITLE4=Chill Out (Sácalo)
TTITLE5=Amapola Negra
TTITLE6=Del Sur
TTITLE7=Manish Boy
TTITLE8=Hard Time Blues
TTITLE9=Madrid-Memphis
TTITLE10=Body Shock
TTITLE11=Blues Latino
TTITLE12=2001 Blues
TTITLE13=Buenos Aires Blues
EXTD=
EXTT0=
EXTT1=
EXTT2=
EXTT3=
EXTT4=
EXTT5=
EXTT6=
EXTT7=
EXTT8=
EXTT9=
EXTT10=
EXTT11=
EXTT12=
EXTT13=
PLAYORDER=
